# xmcd CD database file
#
# Track frame offsets:
#	150
#	12262
#	25062
#	36950
#	56275
#	65750
#	78850
#	89725
#	97900
#	112327
#	126562
#	140075
#	151012
#	165087
#
# Disc length: 2357 seconds
#
# Revision: 0
# Processed by: cddbd v1.5.1PL0 Copyright (c) Steve Scherf et al.
# Submitted via: CDex 1.51
#
DISCID=b309330e
DTITLE=Rene Kollo - Im Krug zum Gruenen Kranze
DYEAR=1991
DGENRE=Country
TTITLE0=Hohe Tannen
TTITLE1=Gruen ist die Heide
TTITLE2=Wer recht in Freuden wandern will
TTITLE3=Der Lindenbaum
TTITLE4=Rose im Schnee
TTITLE5=Hoch auf dem gelben Wagen
TTITLE6=Es dunkelt schon in der Heide
TTITLE7=Ich hab` mein Herz in Heidelberg verloren
TTITLE8=Verloren
TTITLE9=In einem kuehlen Grunde
TTITLE10=Im Krug zum gruenen Kranze
TTITLE11=Ach, wie ist's moeglich dann
TTITLE12=O Taeler weit, o Hoehen
TTITLE13=Nun ade, du mein lieb Heimatland
EXTD=YEAR: 1991
EXTT0=
EXTT1=
EXTT2=
EXTT3=
EXTT4=
EXTT5=
EXTT6=
EXTT7=
EXTT8=
EXTT9=
EXTT10=
EXTT11=
EXTT12=
EXTT13=
PLAYORDER=
